<svg version="1.1" id="Layer_1" xmlns="http://www.w3.org/2000/svg" xmlns:xlink="http://www.w3.org/1999/xlink" x="0px" y="0px"
	 width="100%" viewBox="0 0 500 500" enable-background="new 0 0 500 500" xml:space="preserve">
<path fill="#FFFFFF" opacity="1.000000" stroke="none" 
	d="
M347.000000,501.000000 
	C231.333359,501.000000 116.166725,501.000000 1.000062,501.000000 
	C1.000041,334.333405 1.000041,167.666794 1.000021,1.000151 
	C167.666550,1.000101 334.333099,1.000101 500.999756,1.000050 
	C500.999817,167.666519 500.999817,334.333038 500.999908,500.999786 
	C449.833344,501.000000 398.666656,501.000000 347.000000,501.000000 
M266.067291,375.969543 
	C261.284088,375.969543 256.500885,375.969543 251.457901,375.969543 
	C251.347443,377.954224 251.196564,379.409668 251.195801,380.865143 
	C251.181915,407.498169 251.163849,434.131256 251.196762,460.764252 
	C251.210754,472.075531 257.164978,477.991608 268.453033,477.997162 
	C297.250000,478.011353 326.050537,477.745056 354.842010,478.143219 
	C364.729156,478.279968 371.549377,475.086456 375.788361,465.409271 
	C406.943542,455.562195 438.098694,445.715118 469.568329,435.768677 
	C462.342651,413.416412 455.363708,391.827423 448.303528,369.987061 
	C429.837555,375.711060 411.909790,381.265778 393.983734,386.825958 
	C386.779999,389.060333 386.793213,389.061188 383.926971,381.857300 
	C337.451233,265.046448 290.949066,148.246078 244.591278,31.388432 
	C242.977386,27.320221 241.036606,26.007988 236.663162,26.034584 
	C203.006622,26.239269 169.348282,26.147184 135.690491,26.147186 
	C133.916275,26.147186 132.142044,26.147188 130.343521,26.147188 
	C130.343521,50.491314 130.343521,74.204094 130.343521,98.150047 
	C148.549332,98.150047 166.371292,98.309685 184.186447,98.031944 
	C188.367569,97.966759 189.865051,99.423409 191.049698,103.191277 
	C197.831619,124.762093 204.778030,146.283508 211.953262,167.726456 
	C213.424683,172.123734 212.839493,175.365906 210.338196,179.227829 
	C152.146835,269.073303 94.087524,359.004303 36.015392,448.926971 
	C34.905613,450.645447 33.934818,452.453674 32.528133,454.852844 
	C35.137043,454.852844 36.777145,454.852844 38.417248,454.852844 
	C64.243767,454.852844 90.070831,454.769989 115.896217,454.941467 
	C119.808731,454.967438 122.153244,453.821808 124.378227,450.522369 
	C154.073532,406.487213 183.923523,362.556366 213.733994,318.598877 
	C225.963379,300.565857 238.190262,282.531158 250.951370,263.711029 
	C258.310242,282.481781 265.390930,300.542969 271.973541,319.247559 
	C268.330231,323.878662 266.939819,329.191437 266.966797,335.020081 
	C267.029724,348.628601 266.991302,362.237610 266.067291,375.969543 
z"/>
<path fill="#FF5858" opacity="1.000000" stroke="none" 
	d="
M272.471619,318.604156 
	C265.390930,300.542969 258.310242,282.481781 250.951370,263.711029 
	C238.190262,282.531158 225.963379,300.565857 213.733994,318.598877 
	C183.923523,362.556366 154.073532,406.487213 124.378227,450.522369 
	C122.153244,453.821808 119.808731,454.967438 115.896217,454.941467 
	C90.070831,454.769989 64.243767,454.852844 38.417248,454.852844 
	C36.777145,454.852844 35.137043,454.852844 32.528133,454.852844 
	C33.934818,452.453674 34.905613,450.645447 36.015392,448.926971 
	C94.087524,359.004303 152.146835,269.073303 210.338196,179.227829 
	C212.839493,175.365906 213.424683,172.123734 211.953262,167.726456 
	C204.778030,146.283508 197.831619,124.762093 191.049698,103.191277 
	C189.865051,99.423409 188.367569,97.966759 184.186447,98.031944 
	C166.371292,98.309685 148.549332,98.150047 130.343521,98.150047 
	C130.343521,74.204094 130.343521,50.491314 130.343521,26.147188 
	C132.142044,26.147188 133.916275,26.147186 135.690491,26.147186 
	C169.348282,26.147184 203.006622,26.239269 236.663162,26.034584 
	C241.036606,26.007988 242.977386,27.320221 244.591278,31.388432 
	C290.949066,148.246078 337.451233,265.046448 383.926971,381.857300 
	C386.793213,389.061188 386.779999,389.060333 393.983734,386.825958 
	C411.909790,381.265778 429.837555,375.711060 448.303528,369.987061 
	C455.363708,391.827423 462.342651,413.416412 469.568329,435.768677 
	C438.098694,445.715118 406.943542,455.562195 375.378937,465.004608 
	C374.969513,435.254150 374.969513,405.908325 374.969513,375.890869 
	C369.163361,375.890869 364.057922,375.890869 358.973511,375.432373 
	C358.998840,362.983215 359.023010,350.992584 359.002533,339.001984 
	C358.975464,323.153137 351.136627,312.634460 335.551331,310.292572 
	C323.631622,308.501556 311.380890,308.151978 299.303864,308.408112 
	C289.474182,308.616608 279.783264,310.930664 272.471619,318.604156 
z"/>
<path fill="#F8A62C" opacity="1.000000" stroke="none" 
	d="
M358.952484,375.890869 
	C364.057922,375.890869 369.163361,375.890869 374.969513,375.890869 
	C374.969513,405.908325 374.969513,435.254150 374.989258,465.122101 
	C371.549377,475.086456 364.729156,478.279968 354.842010,478.143219 
	C326.050537,477.745056 297.250000,478.011353 268.453033,477.997162 
	C257.164978,477.991608 251.210754,472.075531 251.196762,460.764252 
	C251.163849,434.131256 251.181915,407.498169 251.195801,380.865143 
	C251.196564,379.409668 251.347443,377.954224 251.457901,375.969543 
	C256.500885,375.969543 261.284088,375.969543 266.989990,375.973755 
	C271.347382,375.934906 274.782104,375.891846 278.667908,375.894470 
	C284.426025,375.930054 289.733124,375.919983 295.505554,375.937500 
	C313.278381,375.949524 330.585846,375.933929 348.355621,375.953857 
	C352.196136,375.956512 355.574310,375.923706 358.952484,375.890869 
M300.254822,403.036835 
	C292.923218,408.168060 291.128418,418.521240 297.898529,423.910522 
	C303.068756,428.026245 303.149994,432.490692 303.025696,437.795898 
	C302.947693,441.124451 303.034882,444.456512 303.006989,447.786652 
	C302.977905,451.258423 304.720093,453.139343 308.019379,453.931976 
	C304.219574,444.960419 306.748352,435.818604 306.877228,427.090179 
	C307.323364,428.570862 308.100067,430.039581 308.154236,431.534454 
	C308.322784,436.187164 308.227966,440.849854 308.214905,445.508606 
	C308.205750,448.783112 308.923096,451.837341 312.834625,451.896332 
	C317.039886,451.959808 317.802765,448.795074 317.781586,445.309692 
	C317.754272,440.817444 317.883423,436.321411 317.736328,431.833832 
	C317.647766,429.131287 318.331604,427.410736 320.826630,425.752228 
	C326.904877,421.711945 327.973907,412.788544 323.510742,407.216309 
	C318.640472,401.135864 310.308807,400.235443 304.472534,405.158752 
	C299.184052,409.619904 298.529541,414.990021 301.462219,423.859283 
	C296.783905,420.436493 295.618103,413.657379 298.686554,407.941284 
	C299.539825,406.351715 300.282532,404.702820 301.743073,403.054108 
	C302.608551,402.666656 303.473999,402.279205 304.339478,401.891754 
	C304.097748,401.499756 303.856049,401.107758 303.614319,400.715790 
	C302.726379,401.456146 301.838409,402.196533 300.254822,403.036835 
M340.989594,445.506317 
	C317.900848,465.825470 290.535278,471.219727 260.140472,468.210449 
	C263.350006,472.410095 266.976257,474.044739 271.601196,474.037201 
	C299.260284,473.992065 326.919525,474.043884 354.578583,473.998138 
	C362.666962,473.984772 368.019104,468.616272 368.026245,460.669128 
	C368.047150,437.342133 368.038330,414.015106 368.025146,390.688110 
	C368.024475,389.508362 367.873718,388.328674 367.879822,388.417419 
	C364.265686,399.008636 361.082611,410.925262 356.112671,422.043121 
	C352.450256,430.235962 346.453644,437.385376 340.989594,445.506317 
M307.956360,400.193115 
	C307.550964,400.283539 307.145599,400.373993 306.740204,400.464447 
	C306.830963,400.581146 306.935455,400.806061 307.010162,400.796570 
	C307.421509,400.744263 307.825531,400.634583 307.956360,400.193115 
z"/>
<path fill="#3B3637" opacity="1.000000" stroke="none" 
	d="
M278.216827,375.848785 
	C274.782104,375.891846 271.347382,375.934906 267.453308,375.912170 
	C266.991302,362.237610 267.029724,348.628601 266.966797,335.020081 
	C266.939819,329.191437 268.330231,323.878662 272.222595,318.925842 
	C279.783264,310.930664 289.474182,308.616608 299.303864,308.408112 
	C311.380890,308.151978 323.631622,308.501556 335.551331,310.292572 
	C351.136627,312.634460 358.975464,323.153137 359.002533,339.001984 
	C359.023010,350.992584 358.998840,362.983215 358.973511,375.432373 
	C355.574310,375.923706 352.196136,375.956512 348.322968,375.494507 
	C347.821106,364.862152 347.902771,354.723572 347.784943,344.587372 
	C347.637909,331.942108 341.936523,323.784485 329.520233,322.332520 
	C317.795563,320.961456 305.705261,321.349121 293.911896,322.437836 
	C286.653290,323.107941 280.660828,327.639435 278.911926,336.221832 
	C278.555084,338.254761 278.193054,339.890961 278.188477,341.528137 
	C278.156525,352.968262 278.198486,364.408539 278.216827,375.848785 
M350.899750,322.653229 
	C350.792236,322.608337 350.684692,322.563446 350.577179,322.518555 
	C350.701111,322.693237 350.825043,322.867889 350.960846,323.813690 
	C353.796295,329.804443 354.091217,336.147430 354.115173,342.669586 
	C354.147095,351.358978 354.841827,360.045959 355.251831,368.733978 
	C355.817413,368.725708 356.383026,368.717438 356.948608,368.709137 
	C356.948608,357.822784 357.181152,346.929230 356.843750,336.053345 
	C356.690918,331.127655 355.597656,326.150665 350.899750,322.653229 
M275.994110,363.332886 
	C275.994110,355.532471 275.994110,347.732086 275.994110,339.931671 
	C275.617554,339.942200 275.240967,339.952698 274.864410,339.963226 
	C274.864410,349.869385 274.864410,359.775543 274.864410,369.681702 
	C275.239746,369.682312 275.615082,369.682922 275.990417,369.683502 
	C275.990417,367.878387 275.990417,366.073242 275.994110,363.332886 
z"/>
<path fill="#FE5757" opacity="1.000000" stroke="none" 
	d="
M279.072205,335.825562 
	C280.660828,327.639435 286.653290,323.107941 293.911896,322.437836 
	C305.705261,321.349121 317.795563,320.961456 329.520233,322.332520 
	C341.936523,323.784485 347.637909,331.942108 347.784943,344.587372 
	C347.902771,354.723572 347.821106,364.862152 347.860626,375.458984 
	C330.585846,375.933929 313.278381,375.949524 295.486694,375.567017 
	C289.692322,362.054443 284.382263,348.940002 279.072205,335.825562 
z"/>
<path fill="#FBCA5D" opacity="1.000000" stroke="none" 
	d="
M341.243347,445.253052 
	C346.453644,437.385376 352.450256,430.235962 356.112671,422.043121 
	C361.082611,410.925262 364.265686,399.008636 367.879822,388.417419 
	C367.873718,388.328674 368.024475,389.508362 368.025146,390.688110 
	C368.038330,414.015106 368.047150,437.342133 368.026245,460.669128 
	C368.019104,468.616272 362.666962,473.984772 354.578583,473.998138 
	C326.919525,474.043884 299.260284,473.992065 271.601196,474.037201 
	C266.976257,474.044739 263.350006,472.410095 260.140472,468.210449 
	C290.535278,471.219727 317.900848,465.825470 341.243347,445.253052 
z"/>
<path fill="#3E3836" opacity="1.000000" stroke="none" 
	d="
M302.208923,423.730713 
	C298.529541,414.990021 299.184052,409.619904 304.472534,405.158752 
	C310.308807,400.235443 318.640472,401.135864 323.510742,407.216309 
	C327.973907,412.788544 326.904877,421.711945 320.826630,425.752228 
	C318.331604,427.410736 317.647766,429.131287 317.736328,431.833832 
	C317.883423,436.321411 317.754272,440.817444 317.781586,445.309692 
	C317.802765,448.795074 317.039886,451.959808 312.834625,451.896332 
	C308.923096,451.837341 308.205750,448.783112 308.214905,445.508606 
	C308.227966,440.849854 308.322784,436.187164 308.154236,431.534454 
	C308.100067,430.039581 307.323364,428.570862 306.449402,427.028564 
	C306.021576,426.966919 306.067627,426.965088 305.927856,426.691040 
	C305.225128,426.205505 304.662231,425.993988 304.088837,425.839478 
	C304.078369,425.896515 304.192657,425.876984 304.124756,425.601593 
	C303.726593,425.171265 303.396332,425.016357 303.061127,424.903503 
	C303.056152,424.945587 303.139648,424.931000 303.090515,424.650604 
	C302.732513,424.186096 302.423645,424.001984 302.145813,423.804199 
	C302.176910,423.790588 302.208923,423.730713 302.208923,423.730713 
z"/>
<path fill="#F9F6F6" opacity="1.000000" stroke="none" 
	d="
M278.911926,336.221832 
	C284.382263,348.940002 289.692322,362.054443 295.021301,375.539398 
	C289.733124,375.919983 284.426025,375.930054 278.667908,375.894470 
	C278.198486,364.408539 278.156525,352.968262 278.188477,341.528137 
	C278.193054,339.890961 278.555084,338.254761 278.911926,336.221832 
z"/>
<path fill="#FBC658" opacity="1.000000" stroke="none" 
	d="
M306.033630,426.946198 
	C306.748352,435.818604 304.219574,444.960419 308.019379,453.931976 
	C304.720093,453.139343 302.977905,451.258423 303.006989,447.786652 
	C303.034882,444.456512 302.947693,441.124451 303.025696,437.795898 
	C303.149994,432.490692 303.068756,428.026245 297.898529,423.910522 
	C291.128418,418.521240 292.923218,408.168060 300.633270,403.023590 
	C301.011719,403.010345 301.075958,403.081146 301.075958,403.081146 
	C300.282532,404.702820 299.539825,406.351715 298.686554,407.941284 
	C295.618103,413.657379 296.783905,420.436493 301.835571,423.794983 
	C302.208923,423.730713 302.176910,423.790588 302.200256,424.078949 
	C302.528961,424.555206 302.834320,424.743103 303.139648,424.931000 
	C303.139648,424.931000 303.056152,424.945587 303.142639,425.170837 
	C303.550323,425.556427 303.871490,425.716705 304.192657,425.876984 
	C304.192657,425.876984 304.078369,425.896515 304.193939,426.145447 
	C304.895538,426.584595 305.481598,426.774841 306.067627,426.965088 
	C306.067627,426.965088 306.021576,426.966919 306.033630,426.946198 
z"/>
<path fill="#FBC658" opacity="1.000000" stroke="none" 
	d="
M300.981079,402.973633 
	C301.838409,402.196533 302.726379,401.456146 303.614319,400.715790 
	C303.856049,401.107758 304.097748,401.499756 304.339478,401.891754 
	C303.473999,402.279205 302.608551,402.666656 301.409515,403.067627 
	C301.075958,403.081146 301.011719,403.010345 300.981079,402.973633 
z"/>
<path fill="#FBC658" opacity="1.000000" stroke="none" 
	d="
M308.094238,400.368866 
	C307.825531,400.634583 307.421509,400.744263 307.010162,400.796570 
	C306.935455,400.806061 306.830963,400.581146 306.740204,400.464447 
	C307.145599,400.373993 307.550964,400.283539 308.094238,400.368866 
z"/>
<path fill="#5C595A" opacity="1.000000" stroke="none" 
	d="
M351.035461,322.956207 
	C355.597656,326.150665 356.690918,331.127655 356.843750,336.053345 
	C357.181152,346.929230 356.948608,357.822784 356.948608,368.709137 
	C356.383026,368.717438 355.817413,368.725708 355.251831,368.733978 
	C354.841827,360.045959 354.147095,351.358978 354.115173,342.669586 
	C354.091217,336.147430 353.796295,329.804443 350.977844,323.407837 
	C350.994812,323.001953 351.035461,322.956207 351.035461,322.956207 
z"/>
<path fill="#5E5B5C" opacity="1.000000" stroke="none" 
	d="
M275.992249,363.800507 
	C275.990417,366.073242 275.990417,367.878387 275.990417,369.683502 
	C275.615082,369.682922 275.239746,369.682312 274.864410,369.681702 
	C274.864410,359.775543 274.864410,349.869385 274.864410,339.963226 
	C275.240967,339.952698 275.617554,339.942200 275.994110,339.931671 
	C275.994110,347.732086 275.994110,355.532471 275.992249,363.800507 
z"/>
<path fill="#5C595A" opacity="1.000000" stroke="none" 
	d="
M350.971924,323.022278 
	C350.825043,322.867889 350.701111,322.693237 350.577179,322.518555 
	C350.684692,322.563446 350.792236,322.608337 350.967590,322.804718 
	C351.035461,322.956207 350.994812,323.001953 350.971924,323.022278 
z"/>
<path fill="#F8A62C" opacity="1.000000" stroke="none" 
	d="
M305.927856,426.691040 
	C305.481598,426.774841 304.895538,426.584595 304.204407,426.088440 
	C304.662231,425.993988 305.225128,426.205505 305.927856,426.691040 
z"/>
<path fill="#F8A62C" opacity="1.000000" stroke="none" 
	d="
M303.090515,424.650604 
	C302.834320,424.743103 302.528961,424.555206 302.169189,424.092590 
	C302.423645,424.001984 302.732513,424.186096 303.090515,424.650604 
z"/>
<path fill="#F8A62C" opacity="1.000000" stroke="none" 
	d="
M304.124756,425.601593 
	C303.871490,425.716705 303.550323,425.556427 303.147644,425.128784 
	C303.396332,425.016357 303.726593,425.171265 304.124756,425.601593 
z"/>
</svg>